{"asset":{"version":"2.0","generator":"babylon.js glTF exporter for 3dsmax 2021 v20210607.3"},"scene":0,"scenes":[{"nodes":[0]}],"nodes":[{"mesh":0,"translation":[0.0,-1.02944374,0.0],"scale":[1.6,1.6,1.6],"name":"T_Shirt_male"}],"meshes":[{"primitives":[{"attributes":{"POSITION":1,"NORMAL":2,"TEXCOORD_0":3},"indices":0,"material":0},{"attributes":{"POSITION":5,"NORMAL":6,"TEXCOORD_0":7},"indices":4,"material":1},{"attributes":{"POSITION":9,"NORMAL":10,"TEXCOORD_0":11},"indices":8,"material":2},{"attributes":{"POSITION":13,"NORMAL":14,"TEXCOORD_0":15},"indices":12,"material":3},{"attributes":{"POSITION":17,"NORMAL":18,"TEXCOORD_0":19},"indices":16,"material":4},{"attributes":{"POSITION":21,"NORMAL":22,"TEXCOORD_0":23},"indices":20,"material":5}],"name":"T_Shirt_male"}],"accessors":[{"bufferView":0,"componentType":5123,"count":10602,"type":"SCALAR","name":"accessorIndices"},{"bufferView":1,"componentType":5126,"count":10602,"max":[0.690426,1.2286036,0.292929679],"min":[-0.6933342,-0.116488054,-0.274005651],"type":"VEC3","name":"accessorPositions"},{"bufferView":1,"byteOffset":127224,"componentType":5126,"count":10602,"type":"VEC3","name":"accessorNormals"},{"bufferView":2,"componentType":5126,"count":10602,"type":"VEC2","name":"accessorUVs"},{"bufferView":0,"byteOffset":21204,"componentType":5123,"count":21552,"type":"SCALAR","name":"accessorIndices"},{"bufferView":1,"byteOffset":254448,"componentType":5126,"count":21552,"max":[0.562375247,1.39801693,0.353953183],"min":[-0.557253063,-0.11607375,-0.3314114],"type":"VEC3","name":"accessorPositions"},{"bufferView":1,"byteOffset":513072,"componentType":5126,"count":21552,"type":"VEC3","name":"accessorNormals"},{"bufferView":2,"byteOffset":84816,"componentType":5126,"count":21552,"type":"VEC2","name":"accessorUVs"},{"bufferView":0,"byteOffset":64308,"componentType":5123,"count":1932,"type":"SCALAR","name":"accessorIndices"},{"bufferView":1,"byteOffset":771696,"componentType":5126,"count":1932,"max":[0.21286498,1.41193891,0.16830349],"min":[-0.204800114,1.26836193,-0.183000371],"type":"VEC3","name":"accessorPositions"},{"bufferView":1,"byteOffset":794880,"componentType":5126,"count":1932,"type":"VEC3","name":"accessorNormals"},{"bufferView":2,"byteOffset":257232,"componentType":5126,"count":1932,"type":"VEC2","name":"accessorUVs"},{"bufferView":0,"byteOffset":68172,"componentType":5123,"count":2790,"type":"SCALAR","name":"accessorIndices"},{"bufferView":1,"byteOffset":818064,"componentType":5126,"count":2790,"max":[0.7009757,0.8112813,0.0542718731],"min":[-0.702964246,0.68428427,-0.214376226],"type":"VEC3","name":"accessorPositions"},{"bufferView":1,"byteOffset":851544,"componentType":5126,"count":2790,"type":"VEC3","name":"accessorNormals"},{"bufferView":2,"byteOffset":272688,"componentType":5126,"count":2790,"type":"VEC2","name":"accessorUVs"},{"bufferView":0,"byteOffset":73752,"componentType":5123,"count":3612,"type":"SCALAR","name":"accessorIndices"},{"bufferView":1,"byteOffset":885024,"componentType":5126,"count":3612,"max":[0.403778672,-0.07236107,0.2945706],"min":[-0.412454456,-0.146218881,-0.283256084],"type":"VEC3","name":"accessorPositions"},{"bufferView":1,"byteOffset":928368,"componentType":5126,"count":3612,"type":"VEC3","name":"accessorNormals"},{"bufferView":2,"byteOffset":295008,"componentType":5126,"count":3612,"type":"VEC2","name":"accessorUVs"},{"bufferView":0,"byteOffset":80976,"componentType":5123,"count":2016,"type":"SCALAR","name":"accessorIndices"},{"bufferView":1,"byteOffset":971712,"componentType":5126,"count":2016,"max":[0.6892541,1.39596462,0.29186973],"min":[-0.691646159,-0.117305584,-0.2734384],"type":"VEC3","name":"accessorPositions"},{"bufferView":1,"byteOffset":995904,"componentType":5126,"count":2016,"type":"VEC3","name":"accessorNormals"},{"bufferView":2,"byteOffset":323904,"componentType":5126,"count":2016,"type":"VEC2","name":"accessorUVs"}],"bufferViews":[{"buffer":0,"byteLength":85008,"name":"bufferViewScalar"},{"buffer":0,"byteOffset":85008,"byteLength":1020096,"byteStride":12,"name":"bufferViewFloatVec3"},{"buffer":0,"byteOffset":1105104,"byteLength":340032,"byteStride":8,"name":"bufferViewFloatVec2"}],"buffers":[{"uri":"model.bin","byteLength":1445136}],"materials":[{"pbrMetallicRoughness":{"metallicFactor":0.0,"roughnessFactor":0.450053632},"name":"01 - Default"},{"pbrMetallicRoughness":{"baseColorTexture":{"index":0},"metallicFactor":0.0,"roughnessFactor":0.450053632},"name":"02 - Default"},{"pbrMetallicRoughness":{"baseColorFactor":[0.0,1.0,0.117647067,1.0],"metallicFactor":0.0,"roughnessFactor":0.450053632},"name":"03 - Default"},{"pbrMetallicRoughness":{"baseColorFactor":[0.2784314,0.0,0.9921569,1.0],"metallicFactor":0.0,"roughnessFactor":0.450053632},"name":"04 - Default"},{"pbrMetallicRoughness":{"baseColorFactor":[0.9725491,0.776470661,0.0,1.0],"metallicFactor":0.0,"roughnessFactor":0.450053632},"name":"05 - Default"},{"pbrMetallicRoughness":{"baseColorFactor":[0.0,0.0470588244,0.980392158,1.0],"metallicFactor":0.0,"roughnessFactor":0.450053632},"name":"06 - Default"}],"textures":[{"sampler":0,"source":0,"name":"texture.jpg"}],"images":[{"uri":"texture.jpg"}],"samplers":[{"magFilter":9729,"minFilter":9987}]}