{
  "accessors": [
    {
      "bufferView": 1,
      "componentType": 5126,
      "count": 65532,
      "max": [
        34.837764739990234,
        34.34872817993164,
        45.19552230834961
      ],
      "min": [
        -28.0129337310791,
        -51.12055587768555,
        -0.2299962043762207
      ],
      "type": "VEC3"
    },
    {
      "bufferView": 1,
      "byteOffset": 786384,
      "componentType": 5126,
      "count": 65532,
      "max": [
        0.9999433755874634,
        0.9999658465385437,
        0.9999992251396179
      ],
      "min": [
        -0.99997478723526,
        -0.9999663829803467,
        -0.9999997615814209
      ],
      "type": "VEC3"
    },
    {
      "bufferView": 0,
      "componentType": 5125,
      "count": 303027,
      "type": "SCALAR"
    },
    {
      "bufferView": 1,
      "byteOffset": 1572768,
      "componentType": 5126,
      "count": 65532,
      "max": [
        33.5384407043457,
        34.29126739501953,
        45.09549331665039
      ],
      "min": [
        -28.519357681274414,
        -51.16777420043945,
        -0.22490383684635162
      ],
      "type": "VEC3"
    },
    {
      "bufferView": 1,
      "byteOffset": 2359152,
      "componentType": 5126,
      "count": 65532,
      "max": [
        0.9993120431900024,
        0.9991961717605591,
        0.9999994039535522
      ],
      "min": [
        -0.99997478723526,
        -0.9999949932098389,
        -0.9999991655349731
      ],
      "type": "VEC3"
    },
    {
      "bufferView": 0,
      "byteOffset": 1212108,
      "componentType": 5125,
      "count": 321315,
      "type": "SCALAR"
    },
    {
      "bufferView": 1,
      "byteOffset": 3145536,
      "componentType": 5126,
      "count": 65532,
      "max": [
        29.908288955688477,
        30.5264835357666,
        45.15050506591797
      ],
      "min": [
        -32.747276306152344,
        -36.64126205444336,
        -0.2101650834083557
      ],
      "type": "VEC3"
    },
    {
      "bufferView": 1,
      "byteOffset": 3931920,
      "componentType": 5126,
      "count": 65532,
      "max": [
        0.9999823570251465,
        0.999178946018219,
        0.9999979734420776
      ],
      "min": [
        -0.9995343685150146,
        -0.9997905492782593,
        -1.0
      ],
      "type": "VEC3"
    },
    {
      "bufferView": 0,
      "byteOffset": 2497368,
      "componentType": 5125,
      "count": 328821,
      "type": "SCALAR"
    },
    {
      "bufferView": 1,
      "byteOffset": 4718304,
      "componentType": 5126,
      "count": 65532,
      "max": [
        31.19352912902832,
        20.68596076965332,
        45.00490188598633
      ],
      "min": [
        -32.81251525878906,
        -46.15448760986328,
        -0.28168198466300964
      ],
      "type": "VEC3"
    },
    {
      "bufferView": 1,
      "byteOffset": 5504688,
      "componentType": 5126,
      "count": 65532,
      "max": [
        0.9999594688415527,
        0.9999949336051941,
        0.9999998807907104
      ],
      "min": [
        -0.9999960064888,
        -0.9999891519546509,
        -1.0
      ],
      "type": "VEC3"
    },
    {
      "bufferView": 0,
      "byteOffset": 3812652,
      "componentType": 5125,
      "count": 328908,
      "type": "SCALAR"
    },
    {
      "bufferView": 1,
      "byteOffset": 6291072,
      "componentType": 5126,
      "count": 65533,
      "max": [
        30.071533203125,
        21.667245864868164,
        44.96194839477539
      ],
      "min": [
        -32.84282302856445,
        -51.1302375793457,
        -0.2525923550128937
      ],
      "type": "VEC3"
    },
    {
      "bufferView": 1,
      "byteOffset": 7077468,
      "componentType": 5126,
      "count": 65533,
      "max": [
        0.9993644952774048,
        0.9999949336051941,
        0.9999987483024597
      ],
      "min": [
        -0.9999992251396179,
        -0.9999651908874512,
        -1.0
      ],
      "type": "VEC3"
    },
    {
      "bufferView": 0,
      "byteOffset": 5128284,
      "componentType": 5125,
      "count": 315207,
      "type": "SCALAR"
    },
    {
      "bufferView": 1,
      "byteOffset": 7863864,
      "componentType": 5126,
      "count": 65534,
      "max": [
        35.412841796875,
        33.21754837036133,
        45.16633987426758
      ],
      "min": [
        -32.7786865234375,
        -51.047054290771484,
        -0.2525923550128937
      ],
      "type": "VEC3"
    },
    {
      "bufferView": 1,
      "byteOffset": 8650272,
      "componentType": 5126,
      "count": 65534,
      "max": [
        0.9998908042907715,
        0.9996936917304993,
        0.9999929070472717
      ],
      "min": [
        -0.9999992251396179,
        -0.9993878602981567,
        -0.9999982118606567
      ],
      "type": "VEC3"
    },
    {
      "bufferView": 0,
      "byteOffset": 6389112,
      "componentType": 5125,
      "count": 284274,
      "type": "SCALAR"
    },
    {
      "bufferView": 1,
      "byteOffset": 9436680,
      "componentType": 5126,
      "count": 65532,
      "max": [
        35.29706573486328,
        34.479976654052734,
        45.07126998901367
      ],
      "min": [
        -32.84282302856445,
        -35.07006072998047,
        3.5244534015655518
      ],
      "type": "VEC3"
    },
    {
      "bufferView": 1,
      "byteOffset": 10223064,
      "componentType": 5126,
      "count": 65532,
      "max": [
        0.9999976754188538,
        0.9999431371688843,
        0.9999994039535522
      ],
      "min": [
        -0.9999933838844299,
        -0.9999983906745911,
        -0.9981768727302551
      ],
      "type": "VEC3"
    },
    {
      "bufferView": 0,
      "byteOffset": 7526208,
      "componentType": 5125,
      "count": 307443,
      "type": "SCALAR"
    },
    {
      "bufferView": 1,
      "byteOffset": 11009448,
      "componentType": 5126,
      "count": 65532,
      "max": [
        35.42903137207031,
        34.478641510009766,
        45.18329620361328
      ],
      "min": [
        -8.031229019165039,
        -34.52590560913086,
        -0.24581165611743927
      ],
      "type": "VEC3"
    },
    {
      "bufferView": 1,
      "byteOffset": 11795832,
      "componentType": 5126,
      "count": 65532,
      "max": [
        0.9999985098838806,
        0.9997092485427856,
        1.0
      ],
      "min": [
        -0.9999891519546509,
        -0.9947609901428223,
        -0.9999948143959045
      ],
      "type": "VEC3"
    },
    {
      "bufferView": 0,
      "byteOffset": 8755980,
      "componentType": 5125,
      "count": 299784,
      "type": "SCALAR"
    },
    {
      "bufferView": 1,
      "byteOffset": 12582216,
      "componentType": 5126,
      "count": 65532,
      "max": [
        35.40385055541992,
        34.16572952270508,
        45.19389343261719
      ],
      "min": [
        -29.732746124267578,
        -34.61149215698242,
        -0.2825145125389099
      ],
      "type": "VEC3"
    },
    {
      "bufferView": 1,
      "byteOffset": 13368600,
      "componentType": 5126,
      "count": 65532,
      "max": [
        0.9998908042907715,
        0.9992697238922119,
        1.0
      ],
      "min": [
        -0.9992780685424805,
        -0.9999663829803467,
        -1.0
      ],
      "type": "VEC3"
    },
    {
      "bufferView": 0,
      "byteOffset": 9955116,
      "componentType": 5125,
      "count": 244608,
      "type": "SCALAR"
    },
    {
      "bufferView": 1,
      "byteOffset": 14154984,
      "componentType": 5126,
      "count": 3712,
      "max": [
        -19.265785217285156,
        20.306962966918945,
        44.95166015625
      ],
      "min": [
        -32.7911376953125,
        -5.365206241607666,
        19.88325309753418
      ],
      "type": "VEC3"
    },
    {
      "bufferView": 1,
      "byteOffset": 14199528,
      "componentType": 5126,
      "count": 3712,
      "max": [
        0.9999823570251465,
        0.9880901575088501,
        0.9998812675476074
      ],
      "min": [
        -0.9999955892562866,
        -0.8190822601318359,
        -0.9849804639816284
      ],
      "type": "VEC3"
    },
    {
      "bufferView": 0,
      "byteOffset": 10933548,
      "componentType": 5125,
      "count": 10869,
      "type": "SCALAR"
    }
  ],
  "asset": {
    "extras": {
      "author": "3DMEK (https://sketchfab.com/3DMEK)",
      "license": "CC-BY-4.0 (http://creativecommons.org/licenses/by/4.0/)",
      "source": "https://sketchfab.com/3d-models/accurate-3d-scan-of-small-porcelean-tea-cup-08f06352a49241e7a868015069573927",
      "title": "Accurate 3D Scan Of Small Porcelean Tea Cup"
    },
    "generator": "Sketchfab-16.14.0",
    "version": "2.0"
  },
  "bufferViews": [
    {
      "buffer": 0,
      "byteLength": 10977024,
      "name": "floatBufferViews",
      "target": 34963
    },
    {
      "buffer": 0,
      "byteLength": 14244072,
      "byteOffset": 10977024,
      "byteStride": 12,
      "name": "floatBufferViews",
      "target": 34962
    }
  ],
  "buffers": [
    {
      "byteLength": 25221096,
      "uri": "scene.bin"
    }
  ],
  "materials": [
    {
      "doubleSided": true,
      "name": "Scene_-_Root",
      "pbrMetallicRoughness": {
        "baseColorFactor": [
          0.5546507232988646,
          0.5537004277552272,
          0.667162779707386,
          1.0
        ],
        "metallicFactor": 0.0,
        "roughnessFactor": 0.0
      }
    }
  ],
  "meshes": [
    {
      "name": "Object_0",
      "primitives": [
        {
          "attributes": {
            "NORMAL": 1,
            "POSITION": 0
          },
          "indices": 2,
          "material": 0,
          "mode": 4
        }
      ]
    },
    {
      "name": "Object_1",
      "primitives": [
        {
          "attributes": {
            "NORMAL": 4,
            "POSITION": 3
          },
          "indices": 5,
          "material": 0,
          "mode": 4
        }
      ]
    },
    {
      "name": "Object_2",
      "primitives": [
        {
          "attributes": {
            "NORMAL": 7,
            "POSITION": 6
          },
          "indices": 8,
          "material": 0,
          "mode": 4
        }
      ]
    },
    {
      "name": "Object_3",
      "primitives": [
        {
          "attributes": {
            "NORMAL": 10,
            "POSITION": 9
          },
          "indices": 11,
          "material": 0,
          "mode": 4
        }
      ]
    },
    {
      "name": "Object_4",
      "primitives": [
        {
          "attributes": {
            "NORMAL": 13,
            "POSITION": 12
          },
          "indices": 14,
          "material": 0,
          "mode": 4
        }
      ]
    },
    {
      "name": "Object_5",
      "primitives": [
        {
          "attributes": {
            "NORMAL": 16,
            "POSITION": 15
          },
          "indices": 17,
          "material": 0,
          "mode": 4
        }
      ]
    },
    {
      "name": "Object_6",
      "primitives": [
        {
          "attributes": {
            "NORMAL": 19,
            "POSITION": 18
          },
          "indices": 20,
          "material": 0,
          "mode": 4
        }
      ]
    },
    {
      "name": "Object_7",
      "primitives": [
        {
          "attributes": {
            "NORMAL": 22,
            "POSITION": 21
          },
          "indices": 23,
          "material": 0,
          "mode": 4
        }
      ]
    },
    {
      "name": "Object_8",
      "primitives": [
        {
          "attributes": {
            "NORMAL": 25,
            "POSITION": 24
          },
          "indices": 26,
          "material": 0,
          "mode": 4
        }
      ]
    },
    {
      "name": "Object_9",
      "primitives": [
        {
          "attributes": {
            "NORMAL": 28,
            "POSITION": 27
          },
          "indices": 29,
          "material": 0,
          "mode": 4
        }
      ]
    }
  ],
  "nodes": [
    {
      "children": [
        1
      ],
      "matrix": [
        1.0,
        0.0,
        0.0,
        0.0,
        0.0,
        2.220446049250313e-16,
        -1.0,
        0.0,
        0.0,
        1.0,
        2.220446049250313e-16,
        0.0,
        0.0,
        0.0,
        0.0,
        1.0
      ],
      "name": "Sketchfab_model"
    },
    {
      "children": [
        2,
        3,
        4,
        5,
        6,
        7,
        8,
        9,
        10,
        11
      ],
      "name": "Small Tea Cup.stl.cleaner.materialmerger.gles"
    },
    {
      "mesh": 0,
      "name": "Object_2"
    },
    {
      "mesh": 1,
      "name": "Object_3"
    },
    {
      "mesh": 2,
      "name": "Object_4"
    },
    {
      "mesh": 3,
      "name": "Object_5"
    },
    {
      "mesh": 4,
      "name": "Object_6"
    },
    {
      "mesh": 5,
      "name": "Object_7"
    },
    {
      "mesh": 6,
      "name": "Object_8"
    },
    {
      "mesh": 7,
      "name": "Object_9"
    },
    {
      "mesh": 8,
      "name": "Object_10"
    },
    {
      "mesh": 9,
      "name": "Object_11"
    }
  ],
  "scene": 0,
  "scenes": [
    {
      "name": "Sketchfab_Scene",
      "nodes": [
        0
      ]
    }
  ]
}
